<svg class="icon" style="width: 1em;height: 1em;vertical-align: middle;fill: currentColor;overflow: hidden;" viewBox="0 0 1024 1024" version="1.1" xmlns="http://www.w3.org/2000/svg"><path d="M512 182.784a331.776 331.776 0 1 1-234.752 97.28 329.728 329.728 0 0 1 234.752-97.28m0-102.4A434.176 434.176 0 1 0 946.176 514.56 434.176 434.176 0 0 0 512 80.384z" fill="#4C4C4C" /><path d="M302.592 440.32a71.68 71.68 0 1 0 71.68 71.68 71.68 71.68 0 0 0-71.68-71.68zM511.488 440.32a71.68 71.68 0 1 0 71.68 71.68 71.68 71.68 0 0 0-71.68-71.68zM721.152 440.32a71.68 71.68 0 1 0 71.68 71.68 71.68 71.68 0 0 0-71.68-71.68z" fill="#FCC53A" /></svg>